# xmcd
#
# Track frame offsets:
# 150
# 18052
# 30547
# 45489
# 58209
# 75533
# 90478
# 104417
#
# Disc length: 1587 seconds
#
# Revision: 0
# Processed by: cddbd v1.5.2PL0 Copyright (c) Steve Scherf et al.
# Submitted via: Audion 3.0.2 (http://www.panic.com/audion/)
#
DISCID=53063108
DTITLE=Pedro Parvina - Los Pasteles Verdes
DYEAR=1900
DGENRE=
TTITLE0=Por tu amor estoy viviendo
TTITLE1=Jesus vino a mi vida
TTITLE2=Madre
TTITLE3=Si se que tengo si se
TTITLE4=Jesus eres tu el camino
TTITLE5=El cambió mi vida
TTITLE6=Loco por Jesus
TTITLE7=Angelitos negros
EXTD=
EXTT0=
EXTT1=
EXTT2=
EXTT3=
EXTT4=
EXTT5=
EXTT6=
EXTT7=
PLAYORDER=
